<?xml version="1.0" encoding="UTF-8" standalone="no"?>
<!-- Created with Inkscape (http://www.inkscape.org/) -->

<svg
   xmlns:dc="http://purl.org/dc/elements/1.1/"
   xmlns:cc="http://creativecommons.org/ns#"
   xmlns:rdf="http://www.w3.org/1999/02/22-rdf-syntax-ns#"
   xmlns:svg="http://www.w3.org/2000/svg"
   xmlns="http://www.w3.org/2000/svg"
   xmlns:sodipodi="http://sodipodi.sourceforge.net/DTD/sodipodi-0.dtd"
   xmlns:inkscape="http://www.inkscape.org/namespaces/inkscape"
   width="210mm"
   height="297mm"
   id="svg3824"
   version="1.1"
   inkscape:version="0.48.2 r9819"
   sodipodi:docname="masterbluebell0.svg">
  <defs
     id="defs3">
    <filter
       id="filter4411"
       inkscape:label="Sharpen more"
       x="0"
       y="0"
       width="1"
       height="1"
       inkscape:menu="Image effects"
       inkscape:menu-tooltip="Sharpen edges and boundaries within the object, force=0.3"
       color-interpolation-filters="sRGB">
      <feConvolveMatrix
         id="feConvolveMatrix4413"
         order="3 3"
         kernelMatrix="0 -0.15 0 -0.15 1.6 -0.15 0 -0.15 0"
         divisor="1"
         in="SourceGraphic"
         targetX="1"
         targetY="1"
         result="fbSourceGraphic" />
      <feColorMatrix
         result="fbSourceGraphicAlpha"
         in="fbSourceGraphic"
         values="0 0 0 -1 0 0 0 0 -1 0 0 0 0 -1 0 0 0 0 1 0"
         id="feColorMatrix4415" />
      <feConvolveMatrix
         id="feConvolveMatrix4417"
         targetY="1"
         targetX="1"
         in="fbSourceGraphic"
         divisor="1"
         kernelMatrix="0 -0.3 0 -0.3 2.2 -0.3 0 -0.3 0"
         order="3 3"
         result="result1" />
      <feBlend
         id="feBlend4419"
         in2="fbSourceGraphic"
         mode="normal"
         result="result2" />
    </filter>
  </defs>
  <sodipodi:namedview
     inkscape:document-units="mm"
     id="base"
     pagecolor="#ffffff"
     bordercolor="#666666"
     borderopacity="1.0"
     inkscape:pageopacity="0.0"
     inkscape:pageshadow="2"
     inkscape:zoom="1.2800429"
     inkscape:cx="293.22385"
     inkscape:cy="580.63679"
     inkscape:current-layer="layer2"
     showgrid="false"
     inkscape:window-width="1862"
     inkscape:window-height="1036"
     inkscape:window-x="0"
     inkscape:window-y="0"
     inkscape:window-maximized="1"
     showguides="true"
     inkscape:guide-bbox="true" />
  <metadata
     id="metadata4">
    <rdf:RDF>
      <cc:Work
         rdf:about="">
        <dc:format>image/svg+xml</dc:format>
        <dc:type
           rdf:resource="http://purl.org/dc/dcmitype/StillImage" />
        <dc:title />
      </cc:Work>
    </rdf:RDF>
  </metadata>
  <g
     inkscape:groupmode="layer"
     id="layer2"
     inkscape:label="baseImage"
     style="display:inline" />
  <g
     inkscape:label="stem"
     inkscape:groupmode="layer"
     id="layer1"
     style="display:inline"
     sodipodi:insensitive="true">
    <path
       style="fill:#006b00;fill-opacity:1;stroke:none"
       d="m 302.72858,375.35549 -1.47304,-0.0925 -6.47621,0.66995 c 0,0 -5.58294,0 -6.69953,0 -1.11659,0 -3.34977,-0.22331 -3.34977,-0.22331 l -2.00986,-2.67982 -1.56322,-2.23317 -2.23318,-0.89327 -2.00986,-0.89327 -0.89327,-3.57309 c 0,0 0.44664,0 0.44664,-0.89327 0,-0.89327 -2.67981,-4.24303 -2.67981,-4.24303 l -2.00986,-1.78654 -1.11659,-2.4565 -0.22332,-2.90313 0.22332,-3.7964 2.16777,-4.88589 0.55456,-1.19765 -1.0083,-4.64961 -1.0625,-3.3125 -2.125,-5.0625 -1.3125,-7.21875 -1.53125,-5.875 -1.78125,-7.21875 -1.75,-4.25 -1.53125,-4.59375 -1.65625,-5.1875 -0.125,-3.78125 -0.59375,-1.15625 -1.0625,0.46875 -1.53125,1.65625 0.25,4 -0.375,33.84375 -0.34375,0.46875 -0.59375,1.4375 -0.59375,1.15625 -0.0937,8.5 2.125,4.84375 2.09375,4.34375 1.1875,4.15625 0.25,4.125 5.3125,9.4375 -1.65625,0.8125 -5.3125,7.5625 -1.3125,3.53125 -11.5625,10.03125 -3.28125,3.53125 -0.71875,0 -0.125,-0.71875 -0.21875,-3.40625 -4.125,-7.3125 -2.375,-0.46875 -0.59375,-0.84375 -0.6875,-0.21875 -0.125,2 2.25,1.875 -0.46875,10.875 L 232.625,397 230.84375,398.28125 230,404.3125 l -1.875,-2.375 -2.59375,-0.8125 -2.9375,-0.125 -1.78125,0.25 -0.34375,0.9375 0.34375,0.9375 1.1875,0.125 1.53125,-0.46875 1.40625,0.21875 1.78125,1.90625 0.9375,1.75 1.0625,2.25 L 230,409.5 l -0.46875,11.8125 2.25,4 -0.34375,43.0625 -4.03125,-2.25 -4.59375,0.125 -3.1875,2.6875 0.25,1.4375 1.28125,0 1.0625,-1.78125 3.0625,-1.28125 2.96875,1.625 3.53125,4.5 -0.9375,41.875 -1.3125,66.53125 -0.6875,0.46875 -0.46875,-4.25 -1.4375,-3.4375 -3.1875,-8.59375 -0.21875,-1.53125 1.875,-4.59375 1.3125,-5.90625 0.46875,-4.25 -0.25,-11.5625 -2.8125,-11.3125 -2.96875,-6.625 -3.0625,-0.0937 -1.1875,0.8125 -5.65625,10.15625 -2.71875,8 -1.03125,10.625 -0.84375,0.25 -3.3125,-5.6875 -5.0625,-7.65625 -3.65625,-4.59375 -5.1875,-6.375 -2.89492,-2.0957 -1.517,2.26426 -0.50566,3.27558 8.44883,7.99336 8.25,15.09375 4.375,13.8125 5.4375,12.625 1.75,7.1875 0.71875,2.9375 7.4375,10.96875 3.0625,5.09375 3.78125,1.28125 2.46875,2.71875 3.43848,15.52116 3.46875,35.57812 c 1.15625,11.85938 -0.12179,31.86867 3.46875,35.57813 3.96147,0.51442 10.0889,0.83998 14.17391,0.27873 l 12.79288,-0.54989 2.03223,-1.375 1.625,-4.625 0.5,-4.375 0.875,-6.375 1.25,-9.25 -0.125,-3.125 c 0,0 0.375,-5.125 0.5,-6 0.125,-0.875 1.5,-4.75 1.5,-4.75 l 2.125,-7.25 0.875,-5.25 4.28125,-9.125 1.59375,-2.65625 0.15625,-1.21875 -1.40625,-0.90625 c 0,0 -0.002,-0.51164 -1.0625,-1.21875 -1.06066,-0.70711 -1.78125,-1.25 -1.78125,-1.25 l -1.40625,-0.875 -1.0625,1.25 -0.53125,1.03125 -0.53125,-1.5625 0.71875,-1.4375 0,-1.40625 -0.1875,-3.53125 -1.9375,-2.3125 -1.40625,-1.75 -1.78125,0.34375 -0.34375,3.90625 -1.78125,1.75 -0.53125,5.5 -2.125,8.8125 -2.09375,13.90625 -0.59375,2.375 -0.84375,4.46875 -2.34375,5.0625 -1.40625,6.84375 -3.78125,7.3125 -2.375,5.4375 -0.34375,-0.125 -0.25,-2.34375 c 0,0 -0.23284,-3.55943 -0.46875,-4.03125 -0.23592,-0.47183 -1.0625,-4.8125 -1.0625,-4.8125 l -1.15625,-0.84375 -0.84375,0.84375 -1.875,2.59375 -0.9375,5.1875 -0.25,3.78125 -0.8125,0.9375 0.0937,-10.375 -0.34375,-13 -1.53125,-19.4375 -1.3125,-15.8125 -1.625,-14.28125 -1.65625,-13.6875 -0.125,-10.125 -0.34375,-12.875 c 0,0 -5.24859,-51.04845 -0.002,-148.33007 l 1.1e-4,0 4.03319,-4.02655 0.625,-1.625 1.5,-1.125 0.875,-3 1.75,-1.75 1.375,-1.875 1.625,-1.375 1.375,-0.75 4.25,0 0.875,0.75 1.25,0.875 0.625,-0.625 -0.625,-1.75 -1.125,-0.625 -2.25,-1 -3.125,0.25 -3.125,1.875 -3.625,3.125 -0.125,-4.25 -0.375,-1.875 -0.625,-0.375 -0.25,-3.625 1.875,-1.75 1.75,-2 2.375,-2.375 3.625,-2.75 2.625,-2.125 1,-0.375 4.375,-4.25 1.375,-0.25 5.375,-1.625 3,-1.875 2.5,-0.5 2.125,-0.875 1.625,-1.375 3.125,0 3.375,1.625 4,2.625 2.625,1.125 1.375,1 c 11.58447,2.38695 6.18991,-3.31173 27.65625,-1.64343 l 4.75,-0.25 c 1.53343,-0.23591 27.5625,-1.875 27.5625,-1.875 l 0.9375,-0.46875 0.21875,-1.40625 -0.9375,-0.46875 -2.9375,-1.65625 -5.0625,-1.53125 -15.6875,-2 -24.86836,0.1958 z"
       id="path5465"
       inkscape:connector-curvature="0"
       sodipodi:nodetypes="cccsccccccscccccccccccccccccccccccccccccccccccccccccccccccccccccccccccccccccccccccccccccccccccccccccccccccccccccccccccccccccccccccccsccccccccccccccccccccccccccccccccscccccccccccccccccccccccccccccccccccccccccccccccccccccccccccccccccccc" />
  </g>
  <g
     inkscape:groupmode="layer"
     id="layer3"
     inkscape:label="flower"
     style="display:inline"
     sodipodi:insensitive="true">
    <path
       style="fill:none;stroke:#000000;stroke-width:1px;stroke-linecap:butt;stroke-linejoin:miter;stroke-opacity:1"
       d="m 362.24426,278.92174 c -2.52656,2.52656 -27.47625,27.47625 -27.47625,27.47625 l -18.63331,13.89603 -13.26439,13.89603 -13.89603,13.26439 -14.60663,14.60663"
       id="path4631"
       inkscape:connector-curvature="0"
       sodipodi:nodetypes="cccccc" />
    <path
       style="fill:none;stroke:#000000;stroke-width:1px;stroke-linecap:butt;stroke-linejoin:miter;stroke-opacity:1"
       d="m 373.92955,284.9223 -7.89547,12.94858 -12.31693,13.58021 -10.42203,12.31694 -9.15874,7.57965 -5.68474,6.31638 -4.73729,3.78982 -13.89603,8.84293 -8.84293,5.36892 -11.36948,8.52711 -6.31637,4.57937 -3.15819,2.52656"
       id="path4633"
       inkscape:connector-curvature="0"
       sodipodi:nodetypes="cccccccccccc" />
    <path
       id="path5535"
       style="fill:#986bee;fill-opacity:0.83999999;stroke:#000000;stroke-width:1px;stroke-linecap:butt;stroke-linejoin:miter;stroke-opacity:1"
       d="m 271.13051,348.4019 -1.10537,1.42118 -0.47372,6.31638 c 0,0 1.42118,2.52655 1.89491,3.15819 0.47373,0.63163 2.68446,2.68446 2.68446,2.68446 l 1.57909,3.00028 -0.31582,1.42118 1.10537,3.3161 2.84237,1.26328 0.94746,0.31581 c 0,0 1.10536,1.89492 2.21073,2.68446 1.10537,0.78955 0.94746,1.73701 2.05282,1.89492 1.10537,0.15791 6.15847,0.15791 6.15847,0.15791 l 5.52683,0.15791 2.05282,-0.31582 m -1.83388,1.25954 6.57918,-6.03425 2.93252,-1.82218 10.28125,-8.25 13.09375,-8.28125 14.71875,-8 8.75,-4.59375 8.25,-5.3125 13.6875,-7.21875 2,-1.28125 9.4375,-2.71875 1.1875,-1.53125 c 0,0 5.05943,-0.4758 5.53125,-0.59375 0.47182,-0.11796 2,-1.65625 2,-1.65625 l 3.4375,-0.9375 6.375,-3.1875 2.21875,-1.1875 0.25,-0.9375 0.21875,-1.875 -2.59375,-0.34375 -1.28125,-1.90625 -2.46875,-1.40625 -2.5,-2.375 -3.0625,0 -1.875,-0.21875 -0.34375,-0.46875 0.8125,-1.1875 5.0625,-3.53125 6.71875,-4.84375 11.8125,-8.125 6.46875,-5.21875 1.0625,-2.8125 1.0625,-1.78125 0.375,-2.46875 -3.1875,-1.3125 -4.375,-2.46875 -3.3125,-0.59375 -9.0625,-0.21875 -9.21875,0.46875 -3.1875,1.78125 -3.65625,2.34375 -2.9375,-3.3125 -11.4375,-0.0937 -1.78125,0.5625 -2.125,2.59375 -1.0625,0.71875 -1.15625,-1.1875 -0.46875,-1.15625 -1.4375,0 -1.875,2.6875 -2.125,-0.46875 -0.46875,-6.9375 0.9375,-0.96875 4.375,-6.46875 -0.375,-8.96875 -1.28125,-8.625 -3.53125,-9.0625 -0.71875,-6.71875 1.3125,-1.3125 -0.25,-1.06255 -1.40625,0.125 -3.4375,2.46875 -3.875,4.25 -5.90625,7.3125 -0.84375,0.9375 -0.0937,0.9375 -1.0625,0.125 -0.25,-2.59375 -0.8125,-0.59375 -2.375,0.375 -2.59375,2.59375 -3.28125,6 -1.0625,3.90625 -4.375,8.125 -8.84375,16.875 -3.4375,8.5 -8.71875,16.625 -9.4375,13.90625 -12.15625,12.03125 -17.79674,16.64049 -1.82778,4.76307"
       inkscape:connector-curvature="0" />
    <path
       style="fill:#ffffff;fill-opacity:0;stroke:none"
       d="m 345.23585,329.39048 11.03773,-9.19811 11.65095,-14.10377 9.19811,-6.13208 4.90566,-7.35849 10.42453,-6.74528 11.65094,-2.45283 11.03774,-1.83962 6.74528,-2.45283 1.83963,-3.06604 -3.06604,6.74528 -8.58491,6.13208 -9.81132,4.90566 -8.5849,6.74528 -3.67925,4.90566 7.9717,1.83962 3.06604,3.06604 3.06603,2.45283 -3.06603,1.22642 c 0,0 -4.29246,-0.61321 -8.58491,1.22641 -4.29245,1.83962 -3.06604,3.67925 -3.06604,3.67925 0,0 -3.06604,-1.22642 -7.35849,-1.22642 -4.29245,0 -10.42453,0.61321 -10.42453,0.61321 l -12.87735,6.74528 -9.81133,4.29245 z"
       id="path5551"
       inkscape:connector-curvature="0" />
    <path
       style="fill:#9d76ee;fill-opacity:0.83999999;stroke:none"
       d="m 354.09685,261.4175 -11.03773,20.23585 -6.13208,12.26415 c -9.25042,8.87192 -37.56913,40.05413 -47.66079,44.71985 -3.76856,-2.08015 19.29419,-23.75265 19.52039,-26.63176 l 13.42342,-18.7013 4.29245,-9.81132 6.13208,-14.10377 7.9717,-12.87736 4.29245,-9.81132 1.83962,-1.22642 1.22642,3.67925 z"
       id="path5553"
       inkscape:connector-curvature="0"
       sodipodi:nodetypes="ccccccccccccc" />
    <path
       style="fill:#9d76ee;fill-opacity:0.83921569;stroke:none"
       d="m 310.8953,361.66315 c 15.08373,-8.94161 56.17148,-36.32352 68.59772,-38.17847 l 15.74234,-7.75708 c -0.393,-8.52725 -1.60299,-6.47716 -5.24714,-8.5021 -1.36665,-8.66739 10.97751,-11.18128 13.93793,-16.60336 2.23685,-2.46742 6.38147,-3.02707 6.3097,-7.80311 l -6.27933,-3.46315 c -5.59244,-0.59754 2.27808,-0.051 -11.71538,1.30452 l -4.21689,6.86048 -10.4927,7.94825 -5.45498,16.06302 -24.34816,20.88538 -38.77873,27.12736 c -20.02407,16.46725 -14.27068,11.00445 1.94562,2.11826 z"
       id="path5555"
       inkscape:connector-curvature="0"
       sodipodi:nodetypes="cccccccccccccc" />
    <path
       style="fill:#9d76ee;fill-opacity:0.83921569;stroke:none"
       d="m 370.19391,285.75328 c -2.86048,4.05235 -16.68614,20.97686 -16.68614,20.97686 l -15.01752,18.59313 -29.08156,22.4071 -17.63963,9.05819 0.23837,-1.66861 4.29072,-4.5291 -4.20772,6.91162 c -6.0563,-11.37005 31.88811,-34.33348 28.58252,-34.53297 9.84867,-7.32251 21.99614,-20.00889 33.24672,-30.60251 l 10.82554,-9.59979 3.06497,2.50934 z"
       id="path7512"
       inkscape:connector-curvature="0"
       sodipodi:nodetypes="ccccccccccccc" />
  </g>
</svg>
