<?xml version="1.0" encoding="UTF-8" standalone="no"?>
<!-- Created with Inkscape (http://www.inkscape.org/) -->

<svg
   xmlns:dc="http://purl.org/dc/elements/1.1/"
   xmlns:cc="http://creativecommons.org/ns#"
   xmlns:rdf="http://www.w3.org/1999/02/22-rdf-syntax-ns#"
   xmlns:svg="http://www.w3.org/2000/svg"
   xmlns="http://www.w3.org/2000/svg"
   xmlns:xlink="http://www.w3.org/1999/xlink"
   xmlns:sodipodi="http://sodipodi.sourceforge.net/DTD/sodipodi-0.dtd"
   xmlns:inkscape="http://www.inkscape.org/namespaces/inkscape"
   width="210mm"
   height="297mm"
   id="svg3181"
   version="1.1"
   inkscape:version="0.48.2 r9819"
   sodipodi:docname="unlocked2.svg"
   inkscape:export-filename="/Users/faisal/Desktop/unlocked2.png"
   inkscape:export-xdpi="97.506195"
   inkscape:export-ydpi="97.506195">
  <defs
     id="defs3">
    <clipPath
       clipPathUnits="userSpaceOnUse"
       id="clipPath3273">
      <path
         style="fill:none;stroke:#000000;stroke-width:1px;stroke-linecap:butt;stroke-linejoin:miter;stroke-opacity:1"
         d="m 662.58977,-346.88504 c 21.2295,32.76572 9.71976,74.37659 -6.08695,117.14834 -11.24359,3.06198 -24.63475,4.71609 -43.9442,2.49029 L 225.35198,-280.25408 C 43.676959,-329.97693 -10.65663,-410.60379 -14.734628,-485.17703 1.9627199,-545.02413 16.427542,-630.75742 271.08059,-661.22007 l 95.20558,2.42462 446.00373,58.80555 c 8.44274,-197.55761 40.80926,-389.23549 83.05864,-578.4845 13.73413,-17.2836 28.3916,-30.1287 44.91081,-34.025 l 805.11495,86.1493 c 41.5303,270.73822 22.8711,543.68601 -96.1154,820.31703 -124.6963,-21.89236 -268.7351,-32.5329 -408.9742,-45.38368 l -393.1635,-38.2343 -36.98923,-19.61233 -1.06907,-51.41686 -55.44138,-6.49599 c -33.38577,-31.15774 -76.71091,-40.02983 -135.95829,-13.20178 -128.14968,-16.07849 -199.35134,-30.86014 -295.89067,-40.67134 -59.63663,-6.31751 -149.84063,-17.38268 -201.02409,48.47276 19.28478,96.7831 281.35883,85.52721 424.02418,111.34142 l 31.19006,8.5654 z"
         id="path3275"
         inkscape:connector-curvature="0"
         sodipodi:nodetypes="ccccccccccccccccccccccc" />
    </clipPath>
  </defs>
  <sodipodi:namedview
     inkscape:document-units="mm"
     id="base"
     pagecolor="#ffffff"
     bordercolor="#666666"
     borderopacity="1.0"
     inkscape:pageopacity="0.0"
     inkscape:pageshadow="2"
     inkscape:zoom="0.20982769"
     inkscape:cx="422.64317"
     inkscape:cy="376.85248"
     inkscape:current-layer="layer7"
     showgrid="false"
     inkscape:window-width="1266"
     inkscape:window-height="827"
     inkscape:window-x="177"
     inkscape:window-y="0"
     inkscape:window-maximized="0" />
  <metadata
     id="metadata4">
    <rdf:RDF>
      <cc:Work
         rdf:about="">
        <dc:format>image/svg+xml</dc:format>
        <dc:type
           rdf:resource="http://purl.org/dc/dcmitype/StillImage" />
        <dc:title></dc:title>
      </cc:Work>
    </rdf:RDF>
  </metadata>
  <g
     inkscape:groupmode="layer"
     id="layer6"
     inkscape:label="wash"
     sodipodi:insensitive="true">
    <rect
       style="fill:#0038ff;fill-opacity:0.01260502;stroke:none"
       id="rect3281"
       width="1417.3229"
       height="1948.8188"
       x="166.80353"
       y="-96.199303" />
  </g>
  <g
     inkscape:label="basephoto"
     inkscape:groupmode="layer"
     id="layer1"
     style="display:inline"
     sodipodi:insensitive="true">
    <g
       id="g3283"
       transform="matrix(1.1162594,0,0,1.0907426,-34.527587,6.4514183)">
      <image
         clip-path="url(#clipPath3273)"
         transform="matrix(0.11637262,0.99320562,-0.99320562,0.11637262,0,0)"
         width="3264"
         height="2448"
         xlink:href="file:///Users/faisal/Desktop/actual-unlocked2.jpg"
         id="image3246"
         x="-1224.8269"
         y="-1990.3949" />
    </g>
  </g>
  <g
     inkscape:groupmode="layer"
     id="layer4"
     inkscape:label="work"
     sodipodi:insensitive="true" />
  <g
     inkscape:groupmode="layer"
     id="layer7"
     inkscape:label="lighten">
    <rect
       style="fill:#ffffff;fill-opacity:0.23529412;stroke:none"
       id="rect4620"
       width="1253.4093"
       height="1934.921"
       x="295.48053"
       y="-96.199303" />
  </g>
</svg>
